<mxfile host="65bd71144e">
    <diagram id="612152QZiE-yK48iECR-" name="App">
        <mxGraphModel dx="1230" dy="2337" grid="1" gridSize="10" guides="1" tooltips="1" connect="1" arrows="1" fold="1" page="1" pageScale="1" pageWidth="1100" pageHeight="800" background="#F1FAEE" math="0" shadow="1">
            <root>
                <mxCell id="0"/>
                <mxCell id="1" parent="0"/>
                <mxCell id="21" style="edgeStyle=orthogonalEdgeStyle;orthogonalLoop=1;jettySize=auto;html=1;entryX=0.5;entryY=0;entryDx=0;entryDy=0;strokeColor=#457B9D;fontColor=#1D3557;labelBackgroundColor=#F1FAEE;" parent="1" source="8" target="18" edge="1">
                    <mxGeometry relative="1" as="geometry">
                        <mxPoint x="377" y="-1360" as="targetPoint"/>
                    </mxGeometry>
                </mxCell>
                <mxCell id="8" value="&lt;b&gt;CLIENT&lt;/b&gt;" style="shape=cube;whiteSpace=wrap;html=1;boundedLbl=1;backgroundOutline=1;darkOpacity=0.05;darkOpacity2=0.1;fillColor=#A8DADC;strokeColor=#457B9D;fontColor=#1D3557;rounded=1;" parent="1" vertex="1">
                    <mxGeometry x="197" y="-1470" width="160" height="80" as="geometry"/>
                </mxCell>
                <mxCell id="19" style="edgeStyle=orthogonalEdgeStyle;orthogonalLoop=1;jettySize=auto;html=1;exitX=0;exitY=0;exitDx=90;exitDy=80;exitPerimeter=0;entryX=0.5;entryY=0;entryDx=0;entryDy=0;strokeColor=#457B9D;fontColor=#1D3557;labelBackgroundColor=#F1FAEE;" parent="1" source="9" target="16" edge="1">
                    <mxGeometry relative="1" as="geometry"/>
                </mxCell>
                <mxCell id="84" style="edgeStyle=orthogonalEdgeStyle;rounded=1;orthogonalLoop=1;jettySize=auto;html=1;entryX=0;entryY=0.5;entryDx=0;entryDy=0;fontColor=#1D3557;strokeColor=#457B9D;fillColor=#A8DADC;exitX=0.519;exitY=1.013;exitDx=0;exitDy=0;exitPerimeter=0;" parent="1" source="9" target="79" edge="1">
                    <mxGeometry relative="1" as="geometry">
                        <Array as="points">
                            <mxPoint x="800" y="-1360"/>
                            <mxPoint x="717" y="-1360"/>
                            <mxPoint x="717" y="-1220"/>
                        </Array>
                    </mxGeometry>
                </mxCell>
                <mxCell id="9" value="&lt;b&gt;SERVER&lt;/b&gt;" style="shape=cube;whiteSpace=wrap;html=1;boundedLbl=1;backgroundOutline=1;darkOpacity=0.05;darkOpacity2=0.1;fillColor=#A8DADC;strokeColor=#457B9D;fontColor=#1D3557;rounded=1;" parent="1" vertex="1">
                    <mxGeometry x="717" y="-1470" width="160" height="80" as="geometry"/>
                </mxCell>
                <mxCell id="61" style="edgeStyle=orthogonalEdgeStyle;rounded=1;orthogonalLoop=1;jettySize=auto;html=1;fontColor=#1D3557;strokeColor=#457B9D;fillColor=#A8DADC;" parent="1" source="10" target="9" edge="1">
                    <mxGeometry relative="1" as="geometry"/>
                </mxCell>
                <mxCell id="63" value="" style="edgeStyle=orthogonalEdgeStyle;rounded=1;orthogonalLoop=1;jettySize=auto;html=1;fontColor=#1D3557;strokeColor=#457B9D;fillColor=#A8DADC;" parent="1" source="10" target="57" edge="1">
                    <mxGeometry relative="1" as="geometry"/>
                </mxCell>
                <mxCell id="64" style="edgeStyle=orthogonalEdgeStyle;rounded=1;orthogonalLoop=1;jettySize=auto;html=1;fontColor=#1D3557;strokeColor=#001DBC;fillColor=#0050ef;" parent="1" source="10" edge="1">
                    <mxGeometry relative="1" as="geometry">
                        <mxPoint x="277" y="-1480" as="targetPoint"/>
                    </mxGeometry>
                </mxCell>
                <mxCell id="10" value="&lt;b&gt;&lt;i&gt;&lt;font style=&quot;font-size: 14px&quot;&gt;&quot;FESACLOUD&quot;&lt;/font&gt;&lt;/i&gt;&lt;/b&gt;" style="shape=ext;double=1;whiteSpace=wrap;html=1;fillColor=#A8DADC;strokeColor=#457B9D;fontColor=#1D3557;rounded=1;" parent="1" vertex="1">
                    <mxGeometry x="437" y="-1580" width="200" height="70" as="geometry"/>
                </mxCell>
                <mxCell id="72" value="" style="edgeStyle=orthogonalEdgeStyle;rounded=1;orthogonalLoop=1;jettySize=auto;html=1;fontColor=#1D3557;strokeColor=#457B9D;fillColor=#A8DADC;" parent="1" source="16" edge="1">
                    <mxGeometry relative="1" as="geometry">
                        <mxPoint x="947" y="-1320" as="targetPoint"/>
                    </mxGeometry>
                </mxCell>
                <mxCell id="16" value="NodeJS" style="whiteSpace=wrap;html=1;fillColor=#A8DADC;strokeColor=#457B9D;fontColor=#1D3557;rounded=1;" parent="1" vertex="1">
                    <mxGeometry x="747" y="-1350" width="120" height="60" as="geometry"/>
                </mxCell>
                <mxCell id="69" value="" style="edgeStyle=orthogonalEdgeStyle;rounded=1;orthogonalLoop=1;jettySize=auto;html=1;fontColor=#1D3557;strokeColor=#457B9D;fillColor=#A8DADC;" parent="1" source="18" target="53" edge="1">
                    <mxGeometry relative="1" as="geometry"/>
                </mxCell>
                <mxCell id="18" value="ReactJS" style="whiteSpace=wrap;html=1;fillColor=#A8DADC;strokeColor=#457B9D;fontColor=#1D3557;rounded=1;" parent="1" vertex="1">
                    <mxGeometry x="217" y="-1350" width="120" height="60" as="geometry"/>
                </mxCell>
                <mxCell id="70" value="" style="edgeStyle=orthogonalEdgeStyle;rounded=1;orthogonalLoop=1;jettySize=auto;html=1;fontColor=#1D3557;strokeColor=#457B9D;fillColor=#A8DADC;" parent="1" source="53" target="59" edge="1">
                    <mxGeometry relative="1" as="geometry"/>
                </mxCell>
                <mxCell id="53" value="Dependencias NPM" style="whiteSpace=wrap;html=1;fillColor=#A8DADC;strokeColor=#457B9D;fontColor=#1D3557;rounded=1;" parent="1" vertex="1">
                    <mxGeometry x="37" y="-1350" width="120" height="60" as="geometry"/>
                </mxCell>
                <mxCell id="66" value="" style="edgeStyle=orthogonalEdgeStyle;rounded=1;orthogonalLoop=1;jettySize=auto;html=1;fontColor=#1D3557;strokeColor=#457B9D;fillColor=#A8DADC;" parent="1" source="57" target="65" edge="1">
                    <mxGeometry relative="1" as="geometry"/>
                </mxCell>
                <mxCell id="57" value="&lt;b&gt;DOCKER&lt;/b&gt;" style="shape=cube;whiteSpace=wrap;html=1;boundedLbl=1;backgroundOutline=1;darkOpacity=0.05;darkOpacity2=0.1;fillColor=#A8DADC;strokeColor=#457B9D;fontColor=#1D3557;rounded=1;" parent="1" vertex="1">
                    <mxGeometry x="457" y="-1470" width="160" height="80" as="geometry"/>
                </mxCell>
                <mxCell id="59" value="&lt;div&gt;react-router-dom&lt;/div&gt;&lt;div&gt;firebase&lt;/div&gt;&lt;div&gt;sass&lt;/div&gt;&lt;div&gt;formik&lt;/div&gt;&lt;div&gt;fontawesome&lt;/div&gt;" style="rounded=0;whiteSpace=wrap;html=1;fontColor=#1D3557;strokeColor=#457B9D;fillColor=#A8DADC;" parent="1" vertex="1">
                    <mxGeometry x="37" y="-1250" width="120" height="100" as="geometry"/>
                </mxCell>
                <mxCell id="67" style="edgeStyle=orthogonalEdgeStyle;rounded=1;orthogonalLoop=1;jettySize=auto;html=1;entryX=0;entryY=0;entryDx=0;entryDy=30;entryPerimeter=0;fontColor=#1D3557;strokeColor=#457B9D;fillColor=#A8DADC;" parent="1" source="65" target="9" edge="1">
                    <mxGeometry relative="1" as="geometry"/>
                </mxCell>
                <mxCell id="68" style="edgeStyle=orthogonalEdgeStyle;rounded=1;orthogonalLoop=1;jettySize=auto;html=1;entryX=1.006;entryY=0.5;entryDx=0;entryDy=0;entryPerimeter=0;fontColor=#1D3557;strokeColor=#457B9D;fillColor=#A8DADC;" parent="1" source="65" target="8" edge="1">
                    <mxGeometry relative="1" as="geometry"/>
                </mxCell>
                <mxCell id="65" value="Docker Compose" style="whiteSpace=wrap;html=1;rounded=1;fontColor=#1D3557;strokeColor=#457B9D;fillColor=#A8DADC;" parent="1" vertex="1">
                    <mxGeometry x="477" y="-1350" width="120" height="60" as="geometry"/>
                </mxCell>
                <mxCell id="78" value="" style="edgeStyle=orthogonalEdgeStyle;rounded=1;orthogonalLoop=1;jettySize=auto;html=1;fontColor=#1D3557;strokeColor=#457B9D;fillColor=#A8DADC;" parent="1" edge="1">
                    <mxGeometry relative="1" as="geometry">
                        <mxPoint x="1007" y="-1290" as="sourcePoint"/>
                        <mxPoint x="1007" y="-1250" as="targetPoint"/>
                    </mxGeometry>
                </mxCell>
                <mxCell id="71" value="Dependencias NPM" style="whiteSpace=wrap;html=1;rounded=1;fontColor=#1D3557;strokeColor=#457B9D;fillColor=#A8DADC;" parent="1" vertex="1">
                    <mxGeometry x="944" y="-1340" width="120" height="60" as="geometry"/>
                </mxCell>
                <mxCell id="83" value="" style="edgeStyle=orthogonalEdgeStyle;rounded=1;orthogonalLoop=1;jettySize=auto;html=1;fontColor=#1D3557;strokeColor=#457B9D;fillColor=#A8DADC;" parent="1" source="75" target="65" edge="1">
                    <mxGeometry relative="1" as="geometry"/>
                </mxCell>
                <mxCell id="75" value="Dockerfile" style="rounded=1;whiteSpace=wrap;html=1;fontColor=#1D3557;strokeColor=#457B9D;fillColor=#A8DADC;arcSize=13;" parent="1" vertex="1">
                    <mxGeometry x="477" y="-1250" width="120" height="60" as="geometry"/>
                </mxCell>
                <mxCell id="dizZYPzQFDcUtV2OxDg1-93" style="edgeStyle=orthogonalEdgeStyle;rounded=1;orthogonalLoop=1;jettySize=auto;html=1;fontColor=#1D3557;strokeColor=#457B9D;fillColor=#A8DADC;entryX=1;entryY=0.5;entryDx=0;entryDy=0;entryPerimeter=0;" parent="1" target="79" edge="1">
                    <mxGeometry relative="1" as="geometry">
                        <mxPoint x="877" y="-1220" as="targetPoint"/>
                        <mxPoint x="947" y="-1220" as="sourcePoint"/>
                    </mxGeometry>
                </mxCell>
                <mxCell id="77" value="Express" style="rounded=0;whiteSpace=wrap;html=1;fontColor=#1D3557;strokeColor=#457B9D;fillColor=#A8DADC;" parent="1" vertex="1">
                    <mxGeometry x="944" y="-1250" width="120" height="60" as="geometry"/>
                </mxCell>
                <mxCell id="dizZYPzQFDcUtV2OxDg1-85" value="" style="edgeStyle=orthogonalEdgeStyle;rounded=1;orthogonalLoop=1;jettySize=auto;html=1;fontColor=#1D3557;strokeColor=#457B9D;fillColor=#A8DADC;" parent="1" source="79" target="dizZYPzQFDcUtV2OxDg1-84" edge="1">
                    <mxGeometry relative="1" as="geometry"/>
                </mxCell>
                <mxCell id="79" value="Nginx" style="whiteSpace=wrap;html=1;fillColor=#A8DADC;strokeColor=#457B9D;fontColor=#1D3557;rounded=1;" parent="1" vertex="1">
                    <mxGeometry x="747" y="-1250" width="120" height="60" as="geometry"/>
                </mxCell>
                <mxCell id="dizZYPzQFDcUtV2OxDg1-84" value="Gestor de Peticiones Http" style="whiteSpace=wrap;html=1;fillColor=#A8DADC;strokeColor=#457B9D;fontColor=#1D3557;rounded=1;arcSize=0;" parent="1" vertex="1">
                    <mxGeometry x="747" y="-1150" width="120" height="60" as="geometry"/>
                </mxCell>
                <mxCell id="2nXvWZyZLRxAEjrrn65S-84" value="&lt;h1&gt;Diagrama de Funcionamiento de la Plataforma Cloud en un Entorno de Aplicación&lt;/h1&gt;&lt;h1&gt;&lt;p style=&quot;font-size: 12px ; font-weight: 400&quot;&gt;Prototipo de funcionamiento a paqueña escala.&lt;/p&gt;&lt;/h1&gt;" style="text;html=1;strokeColor=none;fillColor=none;spacing=5;spacingTop=-20;whiteSpace=wrap;overflow=hidden;rounded=0;sketch=0;fontColor=#1D3557;" parent="1" vertex="1">
                    <mxGeometry x="40" y="-960" width="400" height="120" as="geometry"/>
                </mxCell>
            </root>
        </mxGraphModel>
    </diagram>
    <diagram id="pZ-1TOCYMRvxPxf90ZXV" name="Físico">
        <mxGraphModel dx="861" dy="2116" grid="1" gridSize="10" guides="1" tooltips="1" connect="1" arrows="1" fold="1" page="1" pageScale="1" pageWidth="1200" pageHeight="800" background="#F1FAEE" math="0" shadow="0">
            <root>
                <mxCell id="oZTJHfC3yOtmvCR3Kh4k-0"/>
                <mxCell id="oZTJHfC3yOtmvCR3Kh4k-1" parent="oZTJHfC3yOtmvCR3Kh4k-0"/>
                <mxCell id="B3l1LuH9PpdWnbyf4Il8-1" value="" style="edgeStyle=orthogonalEdgeStyle;curved=0;rounded=1;orthogonalLoop=1;jettySize=auto;html=1;fontColor=#1D3557;strokeColor=#457B9D;fillColor=#A8DADC;labelBackgroundColor=#F1FAEE;" parent="oZTJHfC3yOtmvCR3Kh4k-1" source="983alvK2tDYKvLdNYCI9-0" target="B3l1LuH9PpdWnbyf4Il8-0" edge="1">
                    <mxGeometry relative="1" as="geometry">
                        <Array as="points">
                            <mxPoint x="910" y="-1535"/>
                        </Array>
                    </mxGeometry>
                </mxCell>
                <mxCell id="B3l1LuH9PpdWnbyf4Il8-4" style="edgeStyle=orthogonalEdgeStyle;curved=0;rounded=1;orthogonalLoop=1;jettySize=auto;html=1;entryX=0.5;entryY=0;entryDx=0;entryDy=0;fontColor=#1D3557;strokeColor=#457B9D;fillColor=#A8DADC;labelBackgroundColor=#F1FAEE;" parent="oZTJHfC3yOtmvCR3Kh4k-1" source="983alvK2tDYKvLdNYCI9-0" target="B3l1LuH9PpdWnbyf4Il8-2" edge="1">
                    <mxGeometry relative="1" as="geometry"/>
                </mxCell>
                <mxCell id="983alvK2tDYKvLdNYCI9-0" value="&lt;b&gt;&lt;i&gt;&lt;font style=&quot;font-size: 14px&quot;&gt;&quot;FESACLOUD&quot;&lt;/font&gt;&lt;/i&gt;&lt;/b&gt;" style="shape=ext;double=1;whiteSpace=wrap;html=1;fillColor=#A8DADC;strokeColor=#457B9D;fontColor=#1D3557;rounded=1;" parent="oZTJHfC3yOtmvCR3Kh4k-1" vertex="1">
                    <mxGeometry x="510" y="-1570" width="200" height="70" as="geometry"/>
                </mxCell>
                <mxCell id="DzbImflxcXilb401_GQT-1" value="" style="edgeStyle=orthogonalEdgeStyle;curved=0;rounded=1;sketch=0;orthogonalLoop=1;jettySize=auto;html=1;fontColor=#1D3557;strokeColor=#457B9D;fillColor=#A8DADC;" parent="oZTJHfC3yOtmvCR3Kh4k-1" source="B3l1LuH9PpdWnbyf4Il8-0" target="DzbImflxcXilb401_GQT-0" edge="1">
                    <mxGeometry relative="1" as="geometry"/>
                </mxCell>
                <mxCell id="DzbImflxcXilb401_GQT-3" style="edgeStyle=orthogonalEdgeStyle;rounded=1;sketch=0;orthogonalLoop=1;jettySize=auto;html=1;entryX=0.5;entryY=0;entryDx=0;entryDy=0;fontColor=#1D3557;strokeColor=#457B9D;fillColor=#A8DADC;" parent="oZTJHfC3yOtmvCR3Kh4k-1" source="B3l1LuH9PpdWnbyf4Il8-0" target="DzbImflxcXilb401_GQT-2" edge="1">
                    <mxGeometry relative="1" as="geometry"/>
                </mxCell>
                <mxCell id="B3l1LuH9PpdWnbyf4Il8-0" value="&lt;b&gt;HARDWARE&lt;/b&gt;" style="whiteSpace=wrap;html=1;rounded=1;fontColor=#1D3557;strokeColor=#457B9D;fillColor=#A8DADC;" parent="oZTJHfC3yOtmvCR3Kh4k-1" vertex="1">
                    <mxGeometry x="840" y="-1460" width="140" height="60" as="geometry"/>
                </mxCell>
                <mxCell id="o4nBFWW0otJJN8tX-7Ls-1" value="" style="edgeStyle=orthogonalEdgeStyle;rounded=1;orthogonalLoop=1;jettySize=auto;html=1;labelBackgroundColor=#F1FAEE;strokeColor=#457B9D;fontColor=#1D3557;" parent="oZTJHfC3yOtmvCR3Kh4k-1" source="B3l1LuH9PpdWnbyf4Il8-2" target="o4nBFWW0otJJN8tX-7Ls-0" edge="1">
                    <mxGeometry relative="1" as="geometry"/>
                </mxCell>
                <mxCell id="o4nBFWW0otJJN8tX-7Ls-3" value="" style="edgeStyle=orthogonalEdgeStyle;rounded=0;orthogonalLoop=1;jettySize=auto;html=1;labelBackgroundColor=#F1FAEE;strokeColor=#457B9D;fontColor=#1D3557;" parent="oZTJHfC3yOtmvCR3Kh4k-1" source="B3l1LuH9PpdWnbyf4Il8-2" target="o4nBFWW0otJJN8tX-7Ls-2" edge="1">
                    <mxGeometry relative="1" as="geometry"/>
                </mxCell>
                <mxCell id="o4nBFWW0otJJN8tX-7Ls-5" value="" style="edgeStyle=orthogonalEdgeStyle;rounded=1;orthogonalLoop=1;jettySize=auto;html=1;labelBackgroundColor=#F1FAEE;strokeColor=#457B9D;fontColor=#1D3557;" parent="oZTJHfC3yOtmvCR3Kh4k-1" source="B3l1LuH9PpdWnbyf4Il8-2" target="o4nBFWW0otJJN8tX-7Ls-4" edge="1">
                    <mxGeometry relative="1" as="geometry"/>
                </mxCell>
                <mxCell id="B3l1LuH9PpdWnbyf4Il8-2" value="&lt;b&gt;SISTEMA OPERATIVO&lt;/b&gt;" style="whiteSpace=wrap;html=1;rounded=1;fontColor=#1D3557;strokeColor=#457B9D;fillColor=#A8DADC;" parent="oZTJHfC3yOtmvCR3Kh4k-1" vertex="1">
                    <mxGeometry x="240" y="-1460" width="140" height="60" as="geometry"/>
                </mxCell>
                <mxCell id="Y3Tzx-sgwF-C8--iQBWd-4" style="edgeStyle=orthogonalEdgeStyle;curved=0;rounded=1;sketch=0;orthogonalLoop=1;jettySize=auto;html=1;fontColor=#1D3557;strokeColor=#457B9D;fillColor=#A8DADC;" parent="oZTJHfC3yOtmvCR3Kh4k-1" source="o4nBFWW0otJJN8tX-7Ls-0" edge="1">
                    <mxGeometry relative="1" as="geometry">
                        <mxPoint x="220" y="-1180" as="targetPoint"/>
                        <Array as="points">
                            <mxPoint x="130" y="-1180"/>
                        </Array>
                    </mxGeometry>
                </mxCell>
                <mxCell id="o4nBFWW0otJJN8tX-7Ls-0" value="Linux / Android" style="whiteSpace=wrap;html=1;rounded=1;fontColor=#1D3557;strokeColor=#457B9D;fillColor=#A8DADC;" parent="oZTJHfC3yOtmvCR3Kh4k-1" vertex="1">
                    <mxGeometry x="80" y="-1340" width="120" height="60" as="geometry"/>
                </mxCell>
                <mxCell id="Y3Tzx-sgwF-C8--iQBWd-3" style="edgeStyle=orthogonalEdgeStyle;curved=0;rounded=1;sketch=0;orthogonalLoop=1;jettySize=auto;html=1;fontColor=#1D3557;strokeColor=#457B9D;fillColor=#A8DADC;entryX=0.5;entryY=0;entryDx=0;entryDy=0;" parent="oZTJHfC3yOtmvCR3Kh4k-1" source="o4nBFWW0otJJN8tX-7Ls-2" target="Y3Tzx-sgwF-C8--iQBWd-1" edge="1">
                    <mxGeometry relative="1" as="geometry">
                        <mxPoint x="250" y="-1230" as="targetPoint"/>
                        <Array as="points"/>
                    </mxGeometry>
                </mxCell>
                <mxCell id="o4nBFWW0otJJN8tX-7Ls-2" value="Windows / &lt;br&gt;Windows Phone" style="whiteSpace=wrap;html=1;rounded=1;fontColor=#1D3557;strokeColor=#457B9D;fillColor=#A8DADC;" parent="oZTJHfC3yOtmvCR3Kh4k-1" vertex="1">
                    <mxGeometry x="250" y="-1340" width="120" height="60" as="geometry"/>
                </mxCell>
                <mxCell id="Y3Tzx-sgwF-C8--iQBWd-6" style="edgeStyle=orthogonalEdgeStyle;curved=0;rounded=1;sketch=0;orthogonalLoop=1;jettySize=auto;html=1;fontColor=#1D3557;strokeColor=#457B9D;fillColor=#A8DADC;" parent="oZTJHfC3yOtmvCR3Kh4k-1" source="o4nBFWW0otJJN8tX-7Ls-4" edge="1">
                    <mxGeometry relative="1" as="geometry">
                        <mxPoint x="400" y="-1190" as="targetPoint"/>
                        <Array as="points">
                            <mxPoint x="480" y="-1190"/>
                            <mxPoint x="410" y="-1190"/>
                        </Array>
                    </mxGeometry>
                </mxCell>
                <mxCell id="o4nBFWW0otJJN8tX-7Ls-4" value="MacOS / iOS" style="whiteSpace=wrap;html=1;rounded=1;fontColor=#1D3557;strokeColor=#457B9D;fillColor=#A8DADC;" parent="oZTJHfC3yOtmvCR3Kh4k-1" vertex="1">
                    <mxGeometry x="420" y="-1340" width="120" height="60" as="geometry"/>
                </mxCell>
                <mxCell id="Y3Tzx-sgwF-C8--iQBWd-8" style="edgeStyle=orthogonalEdgeStyle;curved=0;rounded=1;sketch=0;orthogonalLoop=1;jettySize=auto;html=1;fontColor=#1D3557;strokeColor=#457B9D;fillColor=#A8DADC;" parent="oZTJHfC3yOtmvCR3Kh4k-1" source="Y3Tzx-sgwF-C8--iQBWd-1" edge="1">
                    <mxGeometry relative="1" as="geometry">
                        <mxPoint x="310" y="-1110" as="targetPoint"/>
                    </mxGeometry>
                </mxCell>
                <mxCell id="Y3Tzx-sgwF-C8--iQBWd-1" value="Navegador web" style="rounded=1;whiteSpace=wrap;html=1;sketch=0;fontColor=#1D3557;strokeColor=#457B9D;fillColor=#A8DADC;arcSize=0;" parent="oZTJHfC3yOtmvCR3Kh4k-1" vertex="1">
                    <mxGeometry x="225" y="-1210" width="170" height="60" as="geometry"/>
                </mxCell>
                <UserObject label="Docker App" link="data:page/id,612152QZiE-yK48iECR-" id="Y3Tzx-sgwF-C8--iQBWd-7">
                    <mxCell style="shape=cube;whiteSpace=wrap;html=1;boundedLbl=1;backgroundOutline=1;darkOpacity=0.05;darkOpacity2=0.1;rounded=0;sketch=0;fontColor=#1D3557;strokeColor=#457B9D;fillColor=#A8DADC;" parent="oZTJHfC3yOtmvCR3Kh4k-1" vertex="1">
                        <mxGeometry x="250" y="-1100" width="120" height="80" as="geometry"/>
                    </mxCell>
                </UserObject>
                <mxCell id="FAaeRVR6bDDPfvAPqQLI-1" value="" style="edgeStyle=orthogonalEdgeStyle;rounded=1;sketch=0;orthogonalLoop=1;jettySize=auto;html=1;fontColor=#1D3557;strokeColor=#457B9D;fillColor=#A8DADC;" parent="oZTJHfC3yOtmvCR3Kh4k-1" source="DzbImflxcXilb401_GQT-0" target="FAaeRVR6bDDPfvAPqQLI-0" edge="1">
                    <mxGeometry relative="1" as="geometry"/>
                </mxCell>
                <mxCell id="DzbImflxcXilb401_GQT-0" value="&lt;b&gt;Requerimientos a Pequeña Escala&lt;/b&gt;" style="whiteSpace=wrap;html=1;rounded=1;fontColor=#1D3557;strokeColor=#457B9D;fillColor=#A8DADC;" parent="oZTJHfC3yOtmvCR3Kh4k-1" vertex="1">
                    <mxGeometry x="690" y="-1340" width="120" height="60" as="geometry"/>
                </mxCell>
                <mxCell id="CQfFlhCZVGoe318QW5Up-1" value="" style="edgeStyle=orthogonalEdgeStyle;rounded=1;sketch=0;orthogonalLoop=1;jettySize=auto;html=1;fontColor=#1D3557;strokeColor=#457B9D;fillColor=#A8DADC;" parent="oZTJHfC3yOtmvCR3Kh4k-1" source="DzbImflxcXilb401_GQT-2" target="CQfFlhCZVGoe318QW5Up-0" edge="1">
                    <mxGeometry relative="1" as="geometry"/>
                </mxCell>
                <mxCell id="DzbImflxcXilb401_GQT-2" value="&lt;b&gt;Requerimientos a Gran Escala&lt;/b&gt;" style="whiteSpace=wrap;html=1;rounded=1;fontColor=#1D3557;strokeColor=#457B9D;fillColor=#A8DADC;" parent="oZTJHfC3yOtmvCR3Kh4k-1" vertex="1">
                    <mxGeometry x="1020" y="-1340" width="120" height="60" as="geometry"/>
                </mxCell>
                <mxCell id="FAaeRVR6bDDPfvAPqQLI-0" value="&lt;div&gt;&lt;b&gt;Procesador:&lt;/b&gt;&amp;nbsp;&lt;/div&gt;&lt;div&gt;Intel Core i3 o AMD Ryzen 3 de 5ta generación.&lt;/div&gt;&lt;div&gt;&lt;br&gt;&lt;/div&gt;&lt;div&gt;&lt;b&gt;Memoria RAM&lt;/b&gt;:&amp;nbsp;&lt;/div&gt;&lt;div&gt;6 Gigabytes (GB)&lt;/div&gt;&lt;div&gt;&lt;br&gt;&lt;/div&gt;&lt;div&gt;&lt;b&gt;Disco Duro:&lt;/b&gt;&amp;nbsp;&lt;/div&gt;&lt;div&gt;500 GB (HDD)&lt;/div&gt;&lt;div&gt;&lt;br&gt;&lt;/div&gt;&lt;div&gt;&lt;b&gt;Ethernet:&lt;/b&gt;&lt;/div&gt;&lt;div&gt;100 mbps&lt;/div&gt;" style="whiteSpace=wrap;html=1;rounded=1;fontColor=#1D3557;strokeColor=#457B9D;fillColor=#A8DADC;arcSize=0;" parent="oZTJHfC3yOtmvCR3Kh4k-1" vertex="1">
                    <mxGeometry x="690" y="-1240" width="120" height="220" as="geometry"/>
                </mxCell>
                <mxCell id="CQfFlhCZVGoe318QW5Up-0" value="Rack para discos duros&lt;br&gt;&lt;br&gt;Fibra Optica&lt;br&gt;&lt;br&gt;Discos SSD" style="whiteSpace=wrap;html=1;rounded=1;fontColor=#1D3557;strokeColor=#457B9D;fillColor=#A8DADC;arcSize=0;" parent="oZTJHfC3yOtmvCR3Kh4k-1" vertex="1">
                    <mxGeometry x="1020" y="-1240" width="120" height="110" as="geometry"/>
                </mxCell>
                <mxCell id="CQfFlhCZVGoe318QW5Up-2" value="&lt;h1&gt;Diagrama de Funcionamiento de la Plataforma Cloud en un Entorno Físico&lt;/h1&gt;&lt;p&gt;Prototipo de funcionamiento a paqueña escala.&lt;/p&gt;" style="text;html=1;strokeColor=none;fillColor=none;spacing=5;spacingTop=-20;whiteSpace=wrap;overflow=hidden;rounded=0;sketch=0;fontColor=#1D3557;" parent="oZTJHfC3yOtmvCR3Kh4k-1" vertex="1">
                    <mxGeometry x="40" y="-960" width="390" height="120" as="geometry"/>
                </mxCell>
            </root>
        </mxGraphModel>
    </diagram>
</mxfile>